<?xml version="1.0" encoding="iso-8859-1"?>
<!-- Generator: Adobe Illustrator 19.0.0, SVG Export Plug-In . SVG Version: 6.00 Build 0)  -->
<svg version="1.1" id="Capa_1" xmlns="http://www.w3.org/2000/svg" xmlns:xlink="http://www.w3.org/1999/xlink" x="0px" y="0px"
	 viewBox="0 0 480.003 480.003" style="enable-background:new 0 0 480.003 480.003;" xml:space="preserve">
<g>
	<g>
		<path d="M376,136.001c-17.648,0-32-14.352-32-32c0-4.424-3.576-8-8-8H80c-4.424,0-8,3.576-8,8c0,17.648-14.352,32-32,32
			c-4.424,0-8,3.576-8,8v64c0,4.424,3.576,8,8,8c17.648,0,32,14.352,32,32c0,4.424,3.576,8,8,8h256c4.424,0,8-3.576,8-8
			c0-17.648,14.352-32,32-32c4.424,0,8-3.576,8-8v-64C384,139.577,380.424,136.001,376,136.001z M368,200.665
			c-20.072,3.384-35.952,19.264-39.336,39.336H87.336C83.952,219.929,68.072,204.049,48,200.665v-49.328
			c20.072-3.384,35.952-19.264,39.336-39.336h241.328c3.384,20.072,19.264,35.952,39.336,39.336V200.665z"/>
	</g>
</g>
<g>
	<g>
		<path d="M208,136.001c-22.056,0-40,17.944-40,40c0,22.056,17.944,40,40,40c22.056,0,40-17.944,40-40
			C248,153.945,230.056,136.001,208,136.001z M208,200.001c-13.232,0-24-10.768-24-24s10.768-24,24-24s24,10.768,24,24
			S221.232,200.001,208,200.001z"/>
	</g>
</g>
<g>
	<g>
		<path d="M472,0.001H72c-4.424,0-8,3.576-8,8v24H40c-4.424,0-8,3.576-8,8v24H8c-4.424,0-8,3.576-8,8v208c0,4.424,3.576,8,8,8h400
			c4.424,0,8-3.576,8-8v-24h24c4.424,0,8-3.576,8-8v-24h24c4.424,0,8-3.576,8-8v-208C480,3.577,476.424,0.001,472,0.001z
			 M400,248.001v24H16v-192h24h360V248.001z M432,240.001h-16v-168c0-4.424-3.576-8-8-8H48v-16h384V240.001z M464,208.001h-16v-168
			c0-4.424-3.576-8-8-8H80v-16h384V208.001z"/>
	</g>
</g>
<g>
	<g>
		<path d="M476.8,385.609l-96-72.008c-2.416-1.832-5.672-2.112-8.376-0.76c-2.712,1.36-4.424,4.128-4.424,7.16v32H240
			c-4.424,0-8,3.576-8,8v64c0,4.424,3.576,8,8,8h128v40c0,3.104,1.8,5.928,4.608,7.24c1.08,0.512,2.232,0.76,3.392,0.76
			c1.832,0,3.656-0.632,5.128-1.848l96-80c1.872-1.568,2.936-3.904,2.872-6.352C479.936,389.353,478.76,387.073,476.8,385.609z
			 M384,454.921v-30.92c0-4.424-3.576-8-8-8H248v-48h128c4.424,0,8-3.576,8-8v-24l75.112,56.328L384,454.921z"/>
	</g>
</g>
<g>
	<g>
		<path d="M208,352.001h-32c-4.424,0-8,3.576-8,8v64c0,4.424,3.576,8,8,8h32c4.424,0,8-3.576,8-8v-64
			C216,355.577,212.424,352.001,208,352.001z M200,416.001h-16v-48h16V416.001z"/>
	</g>
</g>
<g>
	<g>
		<path d="M128,352.001H96c-4.424,0-8,3.576-8,8v64c0,4.424,3.576,8,8,8h32c4.424,0,8-3.576,8-8v-64
			C136,355.577,132.424,352.001,128,352.001z M120,416.001h-16v-48h16V416.001z"/>
	</g>
</g>
<g>
	<g>
		<path d="M40,352.001H8c-4.424,0-8,3.576-8,8v64c0,4.424,3.576,8,8,8h32c4.424,0,8-3.576,8-8v-64
			C48,355.577,44.424,352.001,40,352.001z M32,416.001H16v-48h16V416.001z"/>
	</g>
</g>
<g>
</g>
<g>
</g>
<g>
</g>
<g>
</g>
<g>
</g>
<g>
</g>
<g>
</g>
<g>
</g>
<g>
</g>
<g>
</g>
<g>
</g>
<g>
</g>
<g>
</g>
<g>
</g>
<g>
</g>
</svg>
