<?xml version="1.0" encoding="iso-8859-1"?>
<!-- Generator: Adobe Illustrator 19.0.0, SVG Export Plug-In . SVG Version: 6.00 Build 0)  -->
<svg version="1.1" id="Capa_1" xmlns="http://www.w3.org/2000/svg" xmlns:xlink="http://www.w3.org/1999/xlink" x="0px" y="0px"
	 viewBox="0 0 512 512" style="enable-background:new 0 0 512 512;" xml:space="preserve">
<g>
	<g>
		<path d="M509.646,268.808l-27.068-32.119c-3.558-4.222-9.867-4.761-14.091-1.202l-32.119,27.067
			c-4.223,3.559-4.762,9.867-1.202,14.091c3.559,4.224,9.868,4.762,14.091,1.202l12.903-10.874
			C456.782,384.201,359.736,477.92,241.203,477.92c-8.047,0-16.153-0.437-24.094-1.296c-5.485-0.594-10.424,3.373-11.019,8.864
			c-0.596,5.491,3.374,10.424,8.864,11.019c8.653,0.938,17.484,1.413,26.248,1.413c64.428,0,124.999-25.09,170.557-70.647
			c43.068-43.068,67.83-99.557,70.409-160.035l12.185,14.459c1.978,2.347,4.805,3.556,7.651,3.556c2.275,0,4.563-0.772,6.439-2.354
			C512.667,279.34,513.206,273.031,509.646,268.808z"/>
	</g>
</g>
<g>
	<g>
		<path d="M461.886,159.221C423.265,71.922,336.641,15.514,241.203,15.514c-37.316,0-74.081,8.643-107.243,25.104l4.748-13.133
			c1.878-5.194-0.811-10.927-6.004-12.805c-5.195-1.88-10.927,0.811-12.805,6.004l-14.281,39.501
			c-1.878,5.194,0.811,10.926,6.004,12.804l39.501,14.282c1.123,0.406,2.271,0.599,3.399,0.599c4.093,0,7.934-2.531,9.405-6.603
			c1.878-5.194-0.811-10.927-6.004-12.805l-20.191-7.3c31.718-16.8,67.307-25.649,103.47-25.649
			c87.527,0,166.972,51.734,202.395,131.799c1.652,3.735,5.313,5.957,9.15,5.957c1.351,0,2.725-0.276,4.04-0.858
			C461.838,170.177,464.121,164.271,461.886,159.221z"/>
	</g>
</g>
<g>
	<g>
		<path d="M138.576,459.355l-7.384-41.35c-0.971-5.436-6.159-9.052-11.603-8.087c-5.437,0.971-9.058,6.165-8.087,11.603
			l2.945,16.493C55.754,396.854,20,329.036,20,256.717c0-47.394,14.768-92.581,42.705-130.677
			c3.267-4.454,2.304-10.712-2.149-13.978c-4.452-3.267-10.712-2.304-13.978,2.149C16.106,155.762,0,205.039,0,256.717
			c0,43.122,11.52,85.441,33.312,122.384c17.854,30.265,42.194,56.3,71.02,76.21l-18.709,3.34
			c-5.437,0.971-9.058,6.165-8.087,11.603c0.865,4.843,5.08,8.244,9.833,8.244c0.583,0,1.175-0.052,1.77-0.157l41.35-7.383
			C135.926,469.987,139.547,464.793,138.576,459.355z"/>
	</g>
</g>
<g>
	<g>
		<path d="M242.816,106.002c-82.71,0-150,67.29-150,150s67.29,150,150,150s150-67.29,150-150S325.526,106.002,242.816,106.002z
			 M242.816,386.002c-71.683,0-130-58.317-130-130s58.317-130,130-130s130,58.317,130,130S314.499,386.002,242.816,386.002z"/>
	</g>
</g>
<g>
	<g>
		<path d="M283.464,326.717c-27.867,0-51.976-16.373-63.232-40h43.232c5.522,0,10-4.478,10-10c0-5.522-4.478-10-10-10H214.19
			c-0.47-3.268-0.726-6.604-0.726-10c0-3.396,0.256-6.732,0.726-10h49.274c5.522,0,10-4.478,10-10c0-5.522-4.478-10-10-10h-43.232
			c11.255-23.628,35.365-40,63.232-40c5.522,0,10-4.478,10-10c0-5.522-4.478-10-10-10c-39.111,0-72.469,25.08-84.852,60h-15.148
			c-5.522,0-10,4.478-10,10c0,5.522,4.478,10,10,10h10.559c-0.365,3.284-0.559,6.62-0.559,10c0,3.38,0.194,6.716,0.559,10h-10.559
			c-5.522,0-10,4.478-10,10c0,5.522,4.478,10,10,10h15.148c12.383,34.92,45.741,60,84.852,60c5.522,0,10-4.478,10-10
			C293.464,331.195,288.986,326.717,283.464,326.717z"/>
	</g>
</g>
<g>
	<g>
		<path d="M339.16,303.281c-0.69-2.58-2.341-4.74-4.66-6.07c-1.521-0.88-3.24-1.34-4.98-1.34c-3.569,0-6.899,1.92-8.68,5.01
			c-2.75,4.771-1.11,10.9,3.67,13.65c1.521,0.88,3.24,1.34,4.99,1.34c3.56,0,6.89-1.92,8.67-5
			C339.5,308.551,339.859,305.861,339.16,303.281z"/>
	</g>
</g>
<g>
	<g>
		<path d="M345.481,216.43c-0.739-1.92-2.029-3.54-3.739-4.689c-2.681-1.811-6.15-2.21-9.19-1.03c-2.492,0.96-4.462,2.83-5.542,5.27
			c-1.08,2.439-1.15,5.149-0.2,7.64l0.01,0.01c3.98,10.32,5.99,21.21,6,32.37c0,3.67-0.229,7.36-0.67,10.98
			c-0.659,5.47,3.25,10.47,8.721,11.13c0.41,0.05,0.819,0.08,1.22,0.08c5.04,0,9.31-3.78,9.92-8.801c0.53-4.409,0.8-8.909,0.8-13.39
			C352.821,242.36,350.351,229.05,345.481,216.43z"/>
	</g>
</g>
<g>
	<g>
		<path d="M175.31,315.523c0-0.002,0-0.002,0-0.012c-14.5-16.439-22.49-37.58-22.5-59.51c0-9.6,1.51-19.04,4.471-28.07
			c0.829-2.54,0.63-5.25-0.58-7.64c-1.2-2.38-3.261-4.15-5.801-4.979c-1.02-0.341-2.069-0.511-3.119-0.511
			c-4.341,0-8.15,2.771-9.5,6.891c-3.631,11.04-5.471,22.59-5.471,34.31c0,26.83,9.771,52.67,27.51,72.75
			c1.9,2.15,4.631,3.39,7.5,3.39c2.44,0,4.78-0.89,6.61-2.51C178.57,325.992,178.96,319.662,175.31,315.523z"/>
	</g>
</g>
<g>
	<g>
		<path d="M174.019,182.75c-1.819-1.59-4.149-2.46-6.569-2.46c-2.891,0-5.641,1.24-7.54,3.42c-1.75,2.01-2.62,4.59-2.44,7.25
			c0.179,2.671,1.389,5.101,3.4,6.861c1.819,1.59,4.16,2.46,6.569,2.46c2.891,0,5.641-1.24,7.54-3.42c0.011,0,0.011-0.01,0.011-0.01
			C178.599,192.691,178.17,186.371,174.019,182.75z"/>
	</g>
</g>
<g>
</g>
<g>
</g>
<g>
</g>
<g>
</g>
<g>
</g>
<g>
</g>
<g>
</g>
<g>
</g>
<g>
</g>
<g>
</g>
<g>
</g>
<g>
</g>
<g>
</g>
<g>
</g>
<g>
</g>
</svg>
